<?xml version="1.0" encoding="utf-8"?>
<!-- Generator: Adobe Illustrator 22.1.0, SVG Export Plug-In . SVG Version: 6.00 Build 0)  -->
<svg version="1.1" id="Layer_1" xmlns="http://www.w3.org/2000/svg" xmlns:xlink="http://www.w3.org/1999/xlink" x="0px" y="0px"
	 viewBox="0 0 445.2 344" style="enable-background:new 0 0 445.2 344;" xml:space="preserve">
<style type="text/css">
	.st0{fill:#F48027;} .bar{fill:#1D2870;}
</style>
<g>
	<path class="bar" d="M358.7,228.5c1.9,0.9,2.6,0.8,3-1.5c2.2-12.1,5.5-23.9,9.5-35.6c0.6-1.7,0.1-2.1-1.3-2.8
		c-8.1-3.8-16.3-7.4-24.5-10.8c-39.2-15.9-79.8-24.8-122.2-24.6c-19.8,0-43.1,2.4-60.5,5.9c-30,6.1-58.6,16.5-86.3,29.5
		c-1.8,0.9-2.2,1.6-1.5,3.5c4.1,11.5,7.3,23.3,9.5,35.3c0.3,1.8,0.7,2.2,2.5,1.3c23.4-11.2,47.6-20.2,72.7-26.5
		c19.6-5,39.6-8.2,59.9-8.6c25-0.5,49.3,3.6,73.3,10.1C315.4,210.1,337.4,218.4,358.7,228.5z"/>
	<path class="st0" d="M316.9,223.8c-0.7-1.2-1.6-1.9-2.9-2.3c-5.6-1.7-11.1-3.5-16.7-5.1c-11.4-3.2-22.9-5.9-34.8-7.9
		c0.3,0.6,0.4,0.9,0.6,1.2c22.4,39.7,44.7,79.5,67.1,119.3c0.8,1.4,1.6,1.6,3.1,1.4c7.6-1.5,15.2-2.8,22.8-4.3
		c5.8-1.1,11.6-2.2,17.3-3.3c0-1-0.5-1.7-0.9-2.3C353.9,288.1,335.4,256,316.9,223.8z"/>
	<path class="st0" d="M183.1,208.6c-17.1,3-33.8,7.3-50.3,12.8c-1.5,0.5-2.4,1.3-3.1,2.6c-18.5,32.1-36.9,64.3-55.5,96.4
		c-1.1,1.9-0.8,2.4,1.3,2.7c12.4,2.2,24.8,4.4,37.2,6.9c2.5,0.5,3.5-0.2,4.6-2.3c17.8-31.8,35.7-63.5,53.5-95.3
		c4.5-7.9,8.9-15.9,13.5-24C183.6,208.6,183.4,208.6,183.1,208.6z"/>
	<path class="st0" d="M221.5,83.8c20,0.8,36.2-14.6,36.6-33.8c0.5-19.5-14.7-35.1-34.4-35.5c-18.7-0.4-34.5,14.9-35,33.8
		C188.3,66.9,203.4,83.1,221.5,83.8z"/>
	<path class="bar bar--left" d="M78.5,260.6c-0.9-14.4-2.9-28.6-6.2-42.6c-4-16.8-9.4-33.1-16.4-48.9c-0.6-1.4-1.3-1.9-2.9-1.8
		c-2.7,0.3-5.4,0.4-8.1,0.4c-5.1,0.2-5.4,0.1-5.7,5.2c-0.2,4.5-1.8,7.5-6.5,8.3c-0.8,0.1-1.6,0.7-2.5,0.9c-1.2,0.3-1.6,1-1.7,2.2
		c-0.2,3.8-0.6,7.5-0.5,10.3c0,8.3,0.6,15.6,2,22.9c2.8,15.2,8.4,29.2,16.8,42.2c0.8,1.2,1.5,1.8,3.1,1.4c2.1-0.5,4.3-0.6,6.4-1
		c1.3-0.3,1.9,0.1,2.6,1.1c1.6,2.4,3.3,4.7,4.8,7.2c0.8,1.3,1.5,1.4,2.8,0.8c3.1-1.6,6.3-3.1,9.6-4.3
		C78.3,263.9,78.7,262.6,78.5,260.6z"/>
	<path class="bar bar--right" d="M417.8,189c-0.4-6.3-0.4-6.3-6.3-8.6c-0.7-0.3-1.5-0.6-2.2-0.8c-1-0.3-1.5-0.9-1.7-2c-0.3-2.6-0.9-5.2-1.2-7.8
		c-0.1-1.4-0.6-1.9-2-2c-3.6-0.1-7.2-0.2-10.8-0.6c-2-0.2-2.9,0.4-3.7,2.3c-9.2,20.8-15.7,42.5-19.5,64.9
		c-1.5,8.7-2.3,17.4-2.9,26.2c-0.1,2.1,0.3,3.3,2.5,4.1c3.3,1.3,6.6,2.9,9.8,4.4c1.2,0.6,1.8,0.4,2.5-0.7c1.3-2.2,2.9-4.2,4.2-6.4
		c1-1.7,2.1-2.5,4.2-1.9c1.7,0.5,3.5,0.4,5.2,0.8c1.7,0.5,2.5-0.1,3.4-1.6c12.4-19.4,18.4-40.7,18.4-63.7
		C417.8,193.5,418,191.3,417.8,189z"/>
	<path class="st0" d="M228.4,92.6c-0.1,1.2,0.6,2,1,2.8c7.6,15.4,15.2,30.7,22.7,46.2c1,2.1,2.3,2.9,4.4,3.1
		c11.4,1.2,22.6,3.1,33.7,5.6c3.1,0.7,6.3,1.4,9.6,2.2c-0.2-0.6-0.2-0.8-0.3-1c-9.2-16.8-18.5-33.5-27.7-50.3
		c-0.6-1.1-1.4-1.4-2.5-1.6c-9.2-1.7-18.3-3.5-27.5-5.1C237.4,93.6,233,92.8,228.4,92.6z"/>
	<path class="st0" d="M147.9,152.3c14.3-3.6,28.7-6.3,43.3-7.8c1.7-0.2,2.4-1,3.1-2.4c6.2-12.8,12.6-25.5,18.8-38.2
		c1.8-3.7,3.6-7.4,5.5-11.3c-0.6,0-1,0-1.3,0c-13.1,1.7-26.2,4.2-39.1,6.7c-1.9,0.4-3,1.2-3.9,2.9c-6.4,11.8-12.9,23.5-19.4,35.2
		c-2.7,4.9-5.4,9.8-8.2,14.8C147.3,152.3,147.6,152.3,147.9,152.3z"/>
</g>
</svg>
